<?xml version="1.0" encoding="UTF-8"?>
<svg width="121px" height="121px" viewBox="0 0 121 121" version="1.1" xmlns="http://www.w3.org/2000/svg" xmlns:xlink="http://www.w3.org/1999/xlink">
    <g id="Page-1" stroke="none" stroke-width="1" fill="none" fill-rule="evenodd">
        <g id="kk" fill-rule="nonzero" fill="#DFDCFF">
            <path d="M118.212435,2.91531259 C115.456853,0.149562471 110.962509,0.149562471 108.186591,2.91531259 L60.2943739,50.8176979 L12.412325,2.91531259 C9.64657484,0.149562471 5.1522309,0.149562471 2.38648079,2.91531259 C-0.37926933,5.6810627 -0.37926933,10.1754066 2.38648079,12.9411568 L50.2685297,60.843542 L2.37631259,108.745927 C-0.389437529,111.501509 -0.389437529,115.995853 2.37631259,118.771772 C3.75918765,120.154647 5.56912706,120.835916 7.37906647,120.835916 C9.19917409,120.835916 11.0091135,120.154647 12.3919886,118.771772 L60.2943739,70.8693862 L108.186591,118.771772 C109.579634,120.154647 111.379405,120.835916 113.209681,120.835916 C115.019621,120.835916 116.819392,120.154647 118.212435,118.771772 C120.988353,115.995853 120.988353,111.501509 118.212435,108.745927 L70.3100498,60.843542 L118.212435,12.9411568 C120.998522,10.1754066 120.998522,5.6810627 118.212435,2.91531259 Z" id="Shape"></path>
        </g>
    </g>
</svg>