<?xml version="1.0" encoding="UTF-8"?>
<svg width="121px" height="53px" viewBox="0 0 121 53" version="1.1" xmlns="http://www.w3.org/2000/svg" xmlns:xlink="http://www.w3.org/1999/xlink">
    <g id="Page-1" stroke="none" stroke-width="1" fill="none" fill-rule="evenodd">
        <path d="M13.4580488,43.8585366 C12.0921883,43.8585366 10.8531763,43.7121966 9.74097561,43.4195122 C8.62877493,43.1268278 7.67268693,42.6097598 6.87268293,41.8682927 C6.07267893,41.1268256 5.44829493,40.1609816 4.9995122,38.9707317 C4.55072946,37.7804819 4.32634146,36.2683019 4.32634146,34.4341463 L4.32634146,19.5658537 L0.58,19.5658537 L0.58,11.9560976 L4.32634146,11.9560976 L4.32634146,3.93658537 L13.2239024,3.93658537 L13.2239024,11.9560976 L20.5995122,11.9560976 L20.5995122,19.5658537 L13.2239024,19.5658537 L13.2239024,32.9707317 C13.2239024,35.0000101 14.1799904,36.0146341 16.0921951,36.0146341 C17.6531785,36.0146341 19.1165785,35.6439061 20.482439,34.902439 L20.482439,42.0439024 C19.545849,42.5902466 18.511713,43.0292666 17.38,43.3609756 C16.248287,43.6926846 14.940983,43.8585366 13.4580488,43.8585366 Z M27.5653659,0.6 L36.4629268,0.6 L36.4629268,43.3317073 L27.5653659,43.3317073 L27.5653659,0.6 Z M42.6678049,49.1268293 C46.8044109,48.6975588 48.7165869,46.7658708 48.4043902,43.3317073 L44.775122,43.3317073 L44.775122,33.9658537 L54.2580488,33.9658537 L54.2580488,41.8682927 C54.2580488,45.7317266 53.3214728,48.5121866 51.4482927,50.2097561 C49.5751126,51.9073256 46.9019686,52.7756096 43.4287805,52.8146341 L42.6678049,49.1268293 Z M44.775122,11.9560976 L54.2580488,11.9560976 L54.2580488,21.3219512 L44.775122,21.3219512 L44.775122,11.9560976 Z M77.3214634,36.3658537 C78.3751272,36.3658537 79.3604832,36.1609777 80.277561,35.7512195 C81.1946387,35.3414614 81.9946307,34.7561014 82.677561,33.995122 C83.3604912,33.2341425 83.9068272,32.3170785 84.3165854,31.2439024 C84.7263435,30.1707263 84.9312195,28.9902503 84.9312195,27.702439 L84.9312195,27.5853659 C84.9312195,26.2975545 84.7263435,25.1170785 84.3165854,24.0439024 C83.9068272,22.9707263 83.3604912,22.0536623 82.677561,21.2926829 C81.9946307,20.5317035 81.1946387,19.9463435 80.277561,19.5365854 C79.3604832,19.1268272 78.3751272,18.9219512 77.3214634,18.9219512 C76.2677996,18.9219512 75.2824436,19.1268272 74.3653659,19.5365854 C73.4482881,19.9463435 72.6385401,20.5317035 71.9360976,21.2926829 C71.233655,22.0536623 70.677563,22.9609703 70.2678049,24.0146341 C69.8580467,25.068298 69.6531707,26.25853 69.6531707,27.5853659 L69.6531707,27.702439 C69.6531707,28.9902503 69.8580467,30.1707263 70.2678049,31.2439024 C70.677563,32.3170785 71.233655,33.2341425 71.9360976,33.995122 C72.6385401,34.7561014 73.4482881,35.3414614 74.3653659,35.7512195 C75.2824436,36.1609777 76.2677996,36.3658537 77.3214634,36.3658537 Z M75.0385366,43.9170732 C73.2043811,43.9170732 71.4287891,43.5658572 69.7117073,42.8634146 C67.9946256,42.1609721 66.4726896,41.1170801 65.1458537,39.7317073 C63.8190178,38.3463345 62.7556138,36.6487905 61.9556098,34.6390244 C61.1556058,32.6292582 60.7556098,30.3170862 60.7556098,27.702439 L60.7556098,27.5853659 C60.7556098,24.9707186 61.1556058,22.6585466 61.9556098,20.6487805 C62.7556138,18.6390143 63.8092618,16.9414703 65.1165854,15.5560976 C66.423909,14.1707248 67.936089,13.1268328 69.6531707,12.4243902 C71.3702525,11.7219477 73.1653565,11.3707317 75.0385366,11.3707317 C77.4190363,11.3707317 79.3799923,11.8390197 80.9214634,12.7756098 C82.4629345,13.7121998 83.7604825,14.8048718 84.8141463,16.0536585 L84.8141463,0.6 L93.7117073,0.6 L93.7117073,43.3317073 L84.8141463,43.3317073 L84.8141463,38.8243902 C83.721458,40.3073245 82.404398,41.5268245 80.8629268,42.4829268 C79.3214557,43.4390292 77.3800117,43.9170732 75.0385366,43.9170732 Z M101.672683,11.9560976 L110.570244,11.9560976 L110.570244,18.2780488 C111.467809,16.1316966 112.697065,14.4146406 114.258049,13.1268293 C115.819032,11.839018 117.926328,11.253658 120.58,11.3707317 L120.58,20.6780488 L120.111707,20.6780488 C117.145839,20.6780488 114.814155,21.5756008 113.116585,23.3707317 C111.419016,25.1658626 110.570244,27.9560786 110.570244,31.7414634 L110.570244,43.3317073 L101.672683,43.3317073 L101.672683,11.9560976 Z" id="tl;dr" fill="#DFDCFF"></path>
    </g>
</svg>