<?xml version="1.0" encoding="UTF-8"?>
<svg width="97px" height="118px" viewBox="0 0 97 118" version="1.1" xmlns="http://www.w3.org/2000/svg" xmlns:xlink="http://www.w3.org/1999/xlink">
    <g id="Page-1" stroke="none" stroke-width="1" fill="none" fill-rule="evenodd">
        <g id="restart-icon" transform="translate(-1.000000, 0.000000)" fill-rule="nonzero" fill="#DFDCFF">
            <path d="M49.3529476,21.1402639 C62.0395812,21.1402639 74.1220894,25.9732672 83.1839705,35.0351484 C101.911858,53.7630361 101.911858,84.573432 83.1839705,103.30132 C72.3097132,114.779702 57.2065779,119.00858 42.7075681,117.196204 L45.7281951,105.113696 C55.9983271,106.321947 66.8725845,102.697194 74.7262148,94.8435639 C88.6210992,80.9486795 88.6210992,57.9919139 74.7262148,43.4929041 C68.0808353,36.8475246 58.4148287,33.2227721 49.3529476,33.2227721 L49.3529476,61.012541 L19.1466771,30.8062705 L49.3529476,0.6 L49.3529476,21.1402639 L49.3529476,21.1402639 Z M14.9177992,103.30132 C-0.789461438,87.594059 -3.20596308,63.4290426 7.6682943,44.7011549 L16.7301754,53.7630361 C10.0847959,67.0537951 12.5012976,83.9693066 23.9796804,94.8435639 C27.0003074,97.864191 30.6250599,100.280693 34.8539377,102.093069 L31.2291853,114.175577 C25.1879312,111.759075 19.7508025,108.134323 14.9177992,103.30132 Z" id="Shape"></path>
        </g>
    </g>
</svg>